<?xml version="1.0" encoding="UTF-8"?>
<!DOCTYPE svg PUBLIC "-//W3C//DTD SVG 1.1//EN" "http://www.w3.org/Graphics/SVG/1.1/DTD/svg11.dtd">
<svg xmlns="http://www.w3.org/2000/svg" version="1.1" width="500px" height="500px" style="shape-rendering:geometricPrecision; text-rendering:geometricPrecision; image-rendering:optimizeQuality; fill-rule:evenodd; clip-rule:evenodd" xmlns:xlink="http://www.w3.org/1999/xlink">
<g><path style="opacity:1" fill="#fefefe" d="M -0.5,-0.5 C 166.167,-0.5 332.833,-0.5 499.5,-0.5C 499.5,166.167 499.5,332.833 499.5,499.5C 332.833,499.5 166.167,499.5 -0.5,499.5C -0.5,332.833 -0.5,166.167 -0.5,-0.5 Z"/></g>
<g><path style="opacity:1" fill="#2548a4" d="M 239.5,126.5 C 265.572,125.236 290.738,129.236 315,138.5C 316.682,143.771 316.682,149.104 315,154.5C 312.872,164.809 310.872,175.142 309,185.5C 306.441,188.349 303.274,189.183 299.5,188C 283.844,180.465 267.511,178.132 250.5,181C 243.933,185.21 242.766,190.71 247,197.5C 249.128,200.63 251.628,203.463 254.5,206C 268.551,217.052 282.885,227.719 297.5,238C 309.458,247.949 318.292,260.116 324,274.5C 331.613,324.057 310.446,352.224 260.5,359C 230.167,363.748 201.834,358.415 175.5,343C 173.129,341.257 171.795,338.923 171.5,336C 174.794,323.864 177.96,311.697 181,299.5C 182.211,294.29 185.377,292.456 190.5,294C 203.393,300.91 217.06,305.077 231.5,306.5C 238.68,307.205 245.347,305.705 251.5,302C 255.714,297.8 256.548,292.966 254,287.5C 251.167,284.667 248.333,281.833 245.5,279C 225.952,267.46 208.118,253.627 192,237.5C 174.25,216.361 168.916,192.361 176,165.5C 182.656,148.844 194.489,137.677 211.5,132C 220.83,129.37 230.163,127.536 239.5,126.5 Z"/></g>
</svg>
