<svg xmlns="http://www.w3.org/2000/svg" xmlns:xlink="http://www.w3.org/1999/xlink" width="500" zoomAndPan="magnify" viewBox="0 0 375 374.999991" height="500" preserveAspectRatio="xMidYMid meet" version="1.0"><defs><g/><clipPath id="2334319298"><path d="M 9.925781 10.109375 L 364.707031 10.109375 L 364.707031 364.890625 L 9.925781 364.890625 Z M 9.925781 10.109375 " clip-rule="nonzero"/></clipPath><clipPath id="495d7a7afd"><path d="M 65.425781 10.109375 L 309.574219 10.109375 C 340.226562 10.109375 365.074219 34.957031 365.074219 65.609375 L 365.074219 309.390625 C 365.074219 340.042969 340.226562 364.890625 309.574219 364.890625 L 65.425781 364.890625 C 34.773438 364.890625 9.925781 340.042969 9.925781 309.390625 L 9.925781 65.609375 C 9.925781 34.957031 34.773438 10.109375 65.425781 10.109375 Z M 65.425781 10.109375 " clip-rule="nonzero"/></clipPath><radialGradient gradientTransform="matrix(1, 0, 0, 1, 9.923251, 10.10901)" gradientUnits="userSpaceOnUse" r="501.99842" cx="0" id="1165d37dbf" cy="0" fx="0" fy="0"><stop stop-opacity="1" stop-color="rgb(100%, 100%, 100%)" offset="0"/><stop stop-opacity="1" stop-color="rgb(99.815369%, 99.815369%, 99.815369%)" offset="0.5"/><stop stop-opacity="1" stop-color="rgb(99.54071%, 99.54071%, 99.54071%)" offset="0.507812"/><stop stop-opacity="1" stop-color="rgb(99.356079%, 99.356079%, 99.356079%)" offset="0.511719"/><stop stop-opacity="1" stop-color="rgb(99.172974%, 99.172974%, 99.172974%)" offset="0.515625"/><stop stop-opacity="1" stop-color="rgb(98.989868%, 98.989868%, 98.989868%)" offset="0.519531"/><stop stop-opacity="1" stop-color="rgb(98.805237%, 98.805237%, 98.805237%)" offset="0.523438"/><stop stop-opacity="1" stop-color="rgb(98.622131%, 98.622131%, 98.622131%)" offset="0.527344"/><stop stop-opacity="1" stop-color="rgb(98.439026%, 98.439026%, 98.439026%)" offset="0.53125"/><stop stop-opacity="1" stop-color="rgb(98.254395%, 98.254395%, 98.254395%)" offset="0.535156"/><stop stop-opacity="1" stop-color="rgb(98.071289%, 98.071289%, 98.071289%)" offset="0.539062"/><stop stop-opacity="1" stop-color="rgb(97.888184%, 97.888184%, 97.888184%)" offset="0.542969"/><stop stop-opacity="1" stop-color="rgb(97.703552%, 97.703552%, 97.703552%)" offset="0.546875"/><stop stop-opacity="1" stop-color="rgb(97.520447%, 97.520447%, 97.520447%)" offset="0.550781"/><stop stop-opacity="1" stop-color="rgb(97.337341%, 97.337341%, 97.337341%)" offset="0.554688"/><stop stop-opacity="1" stop-color="rgb(97.15271%, 97.15271%, 97.15271%)" offset="0.558594"/><stop stop-opacity="1" stop-color="rgb(96.969604%, 96.969604%, 96.969604%)" offset="0.5625"/><stop stop-opacity="1" stop-color="rgb(96.786499%, 96.786499%, 96.786499%)" offset="0.566406"/><stop stop-opacity="1" stop-color="rgb(96.601868%, 96.601868%, 96.601868%)" offset="0.570312"/><stop stop-opacity="1" stop-color="rgb(96.418762%, 96.418762%, 96.418762%)" offset="0.574219"/><stop stop-opacity="1" stop-color="rgb(96.235657%, 96.235657%, 96.235657%)" offset="0.578125"/><stop stop-opacity="1" stop-color="rgb(96.051025%, 96.051025%, 96.051025%)" offset="0.582031"/><stop stop-opacity="1" stop-color="rgb(95.86792%, 95.86792%, 95.86792%)" offset="0.585938"/><stop stop-opacity="1" stop-color="rgb(95.684814%, 95.684814%, 95.684814%)" offset="0.589844"/><stop stop-opacity="1" stop-color="rgb(95.501709%, 95.501709%, 95.501709%)" offset="0.59375"/><stop stop-opacity="1" stop-color="rgb(95.317078%, 95.317078%, 95.317078%)" offset="0.597656"/><stop stop-opacity="1" stop-color="rgb(95.133972%, 95.133972%, 95.133972%)" offset="0.601562"/><stop stop-opacity="1" stop-color="rgb(94.950867%, 94.950867%, 94.950867%)" offset="0.605469"/><stop stop-opacity="1" stop-color="rgb(94.766235%, 94.766235%, 94.766235%)" offset="0.609375"/><stop stop-opacity="1" stop-color="rgb(94.58313%, 94.58313%, 94.58313%)" offset="0.613281"/><stop stop-opacity="1" stop-color="rgb(94.400024%, 94.400024%, 94.400024%)" offset="0.617188"/><stop stop-opacity="1" stop-color="rgb(94.215393%, 94.215393%, 94.215393%)" offset="0.621094"/><stop stop-opacity="1" stop-color="rgb(94.032288%, 94.032288%, 94.032288%)" offset="0.625"/><stop stop-opacity="1" stop-color="rgb(93.756104%, 93.756104%, 93.756104%)" offset="0.628906"/><stop stop-opacity="1" stop-color="rgb(93.389893%, 93.389893%, 93.389893%)" offset="0.636719"/><stop stop-opacity="1" stop-color="rgb(93.022156%, 93.022156%, 93.022156%)" offset="0.644531"/><stop stop-opacity="1" stop-color="rgb(92.654419%, 92.654419%, 92.654419%)" offset="0.652344"/><stop stop-opacity="1" stop-color="rgb(92.288208%, 92.288208%, 92.288208%)" offset="0.660156"/><stop stop-opacity="1" stop-color="rgb(91.920471%, 91.920471%, 91.920471%)" offset="0.667969"/><stop stop-opacity="1" stop-color="rgb(91.552734%, 91.552734%, 91.552734%)" offset="0.675781"/><stop stop-opacity="1" stop-color="rgb(91.186523%, 91.186523%, 91.186523%)" offset="0.683594"/><stop stop-opacity="1" stop-color="rgb(90.818787%, 90.818787%, 90.818787%)" offset="0.691406"/><stop stop-opacity="1" stop-color="rgb(90.452576%, 90.452576%, 90.452576%)" offset="0.699219"/><stop stop-opacity="1" stop-color="rgb(90.084839%, 90.084839%, 90.084839%)" offset="0.707031"/><stop stop-opacity="1" stop-color="rgb(89.717102%, 89.717102%, 89.717102%)" offset="0.714844"/><stop stop-opacity="1" stop-color="rgb(89.350891%, 89.350891%, 89.350891%)" offset="0.722656"/><stop stop-opacity="1" stop-color="rgb(88.983154%, 88.983154%, 88.983154%)" offset="0.730469"/><stop stop-opacity="1" stop-color="rgb(88.615417%, 88.615417%, 88.615417%)" offset="0.738281"/><stop stop-opacity="1" stop-color="rgb(88.249207%, 88.249207%, 88.249207%)" offset="0.746094"/><stop stop-opacity="1" stop-color="rgb(87.973022%, 87.973022%, 87.973022%)" offset="0.753906"/><stop stop-opacity="1" stop-color="rgb(87.789917%, 87.789917%, 87.789917%)" offset="0.757812"/><stop stop-opacity="1" stop-color="rgb(87.606812%, 87.606812%, 87.606812%)" offset="0.761719"/><stop stop-opacity="1" stop-color="rgb(87.42218%, 87.42218%, 87.42218%)" offset="0.765625"/><stop stop-opacity="1" stop-color="rgb(87.239075%, 87.239075%, 87.239075%)" offset="0.769531"/><stop stop-opacity="1" stop-color="rgb(87.055969%, 87.055969%, 87.055969%)" offset="0.773438"/><stop stop-opacity="1" stop-color="rgb(86.871338%, 86.871338%, 86.871338%)" offset="0.777344"/><stop stop-opacity="1" stop-color="rgb(86.688232%, 86.688232%, 86.688232%)" offset="0.78125"/><stop stop-opacity="1" stop-color="rgb(86.505127%, 86.505127%, 86.505127%)" offset="0.785156"/><stop stop-opacity="1" stop-color="rgb(86.322021%, 86.322021%, 86.322021%)" offset="0.789062"/><stop stop-opacity="1" stop-color="rgb(86.13739%, 86.13739%, 86.13739%)" offset="0.792969"/><stop stop-opacity="1" stop-color="rgb(85.954285%, 85.954285%, 85.954285%)" offset="0.796875"/><stop stop-opacity="1" stop-color="rgb(85.771179%, 85.771179%, 85.771179%)" offset="0.800781"/><stop stop-opacity="1" stop-color="rgb(85.586548%, 85.586548%, 85.586548%)" offset="0.804688"/><stop stop-opacity="1" stop-color="rgb(85.403442%, 85.403442%, 85.403442%)" offset="0.808594"/><stop stop-opacity="1" stop-color="rgb(85.220337%, 85.220337%, 85.220337%)" offset="0.8125"/><stop stop-opacity="1" stop-color="rgb(84.944153%, 84.944153%, 84.944153%)" offset="0.816406"/><stop stop-opacity="1" stop-color="rgb(84.576416%, 84.576416%, 84.576416%)" offset="0.824219"/><stop stop-opacity="1" stop-color="rgb(84.210205%, 84.210205%, 84.210205%)" offset="0.832031"/><stop stop-opacity="1" stop-color="rgb(83.842468%, 83.842468%, 83.842468%)" offset="0.839844"/><stop stop-opacity="1" stop-color="rgb(83.474731%, 83.474731%, 83.474731%)" offset="0.847656"/><stop stop-opacity="1" stop-color="rgb(83.108521%, 83.108521%, 83.108521%)" offset="0.855469"/><stop stop-opacity="1" stop-color="rgb(82.740784%, 82.740784%, 82.740784%)" offset="0.863281"/><stop stop-opacity="1" stop-color="rgb(82.373047%, 82.373047%, 82.373047%)" offset="0.871094"/><stop stop-opacity="1" stop-color="rgb(82.098389%, 82.098389%, 82.098389%)" offset="0.878906"/><stop stop-opacity="1" stop-color="rgb(81.915283%, 81.915283%, 81.915283%)" offset="0.882812"/><stop stop-opacity="1" stop-color="rgb(81.732178%, 81.732178%, 81.732178%)" offset="0.886719"/><stop stop-opacity="1" stop-color="rgb(81.547546%, 81.547546%, 81.547546%)" offset="0.890625"/><stop stop-opacity="1" stop-color="rgb(81.364441%, 81.364441%, 81.364441%)" offset="0.894531"/><stop stop-opacity="1" stop-color="rgb(81.181335%, 81.181335%, 81.181335%)" offset="0.898438"/><stop stop-opacity="1" stop-color="rgb(80.996704%, 80.996704%, 80.996704%)" offset="0.902344"/><stop stop-opacity="1" stop-color="rgb(80.813599%, 80.813599%, 80.813599%)" offset="0.90625"/><stop stop-opacity="1" stop-color="rgb(80.537415%, 80.537415%, 80.537415%)" offset="0.910156"/><stop stop-opacity="1" stop-color="rgb(80.171204%, 80.171204%, 80.171204%)" offset="0.917969"/><stop stop-opacity="1" stop-color="rgb(79.803467%, 79.803467%, 79.803467%)" offset="0.925781"/><stop stop-opacity="1" stop-color="rgb(79.43573%, 79.43573%, 79.43573%)" offset="0.933594"/><stop stop-opacity="1" stop-color="rgb(79.161072%, 79.161072%, 79.161072%)" offset="0.941406"/><stop stop-opacity="1" stop-color="rgb(78.977966%, 78.977966%, 78.977966%)" offset="0.945312"/><stop stop-opacity="1" stop-color="rgb(78.793335%, 78.793335%, 78.793335%)" offset="0.949219"/><stop stop-opacity="1" stop-color="rgb(78.610229%, 78.610229%, 78.610229%)" offset="0.953125"/><stop stop-opacity="1" stop-color="rgb(78.334045%, 78.334045%, 78.334045%)" offset="0.957031"/><stop stop-opacity="1" stop-color="rgb(77.967834%, 77.967834%, 77.967834%)" offset="0.964844"/><stop stop-opacity="1" stop-color="rgb(77.69165%, 77.69165%, 77.69165%)" offset="0.972656"/><stop stop-opacity="1" stop-color="rgb(77.508545%, 77.508545%, 77.508545%)" offset="0.976562"/><stop stop-opacity="1" stop-color="rgb(77.233887%, 77.233887%, 77.233887%)" offset="0.980469"/><stop stop-opacity="1" stop-color="rgb(76.957703%, 76.957703%, 76.957703%)" offset="0.988281"/><stop stop-opacity="1" stop-color="rgb(76.683044%, 76.683044%, 76.683044%)" offset="0.992188"/><stop stop-opacity="1" stop-color="rgb(76.499939%, 76.499939%, 76.499939%)" offset="1"/></radialGradient></defs><g clip-path="url(#2334319298)"><g clip-path="url(#495d7a7afd)"><path fill="url(#1165d37dbf)" d="M 9.925781 10.109375 L 9.925781 364.890625 L 364.707031 364.890625 L 364.707031 10.109375 Z M 9.925781 10.109375 " fill-rule="nonzero"/></g></g><g fill="#2448a4" fill-opacity="1"><g transform="translate(96.661081, 291.133648)"><g><path d="M 128.171875 -121.609375 C 145.265625 -109.523438 156.3125 -96.914062 161.3125 -83.78125 C 166.3125 -70.65625 167.039062 -57.316406 163.5 -43.765625 C 161.414062 -35.222656 157.195312 -27.351562 150.84375 -20.15625 C 144.488281 -12.96875 135.578125 -7.1875 124.109375 -2.8125 C 112.648438 1.5625 98.164062 3.75 80.65625 3.75 C 69.613281 3.75 59.921875 2.65625 51.578125 0.46875 C 43.242188 -1.71875 36.367188 -4.21875 30.953125 -7.03125 C 25.535156 -9.84375 21.46875 -12.082031 18.75 -13.75 C 16.039062 -15.625 15.207031 -18.648438 16.25 -22.828125 C 16.457031 -23.867188 17.03125 -26.160156 17.96875 -29.703125 C 18.90625 -33.242188 19.945312 -37.097656 21.09375 -41.265625 C 22.25 -45.429688 23.242188 -49.128906 24.078125 -52.359375 C 24.910156 -55.585938 25.429688 -57.515625 25.640625 -58.140625 C 26.054688 -59.191406 26.941406 -60.132812 28.296875 -60.96875 C 29.648438 -61.800781 31.160156 -61.800781 32.828125 -60.96875 C 38.867188 -58.25 45.171875 -55.535156 51.734375 -52.828125 C 58.304688 -50.117188 64.507812 -48.554688 70.34375 -48.140625 C 77.632812 -47.929688 83.832031 -48.816406 88.9375 -50.796875 C 94.039062 -52.773438 96.695312 -56.0625 96.90625 -60.65625 C 96.90625 -63.78125 95.8125 -66.539062 93.625 -68.9375 C 91.4375 -71.332031 87.894531 -74.25 83 -77.6875 C 78.101562 -81.125 71.382812 -85.757812 62.84375 -91.59375 C 54.082031 -97.644531 45.953125 -104.523438 38.453125 -112.234375 C 30.953125 -119.941406 25.21875 -128.742188 21.25 -138.640625 C 17.289062 -148.546875 16.039062 -159.75 17.5 -172.25 C 18.96875 -183.925781 22.566406 -193.148438 28.296875 -199.921875 C 34.023438 -206.691406 40.898438 -211.691406 48.921875 -214.921875 C 56.953125 -218.160156 65.082031 -220.25 73.3125 -221.1875 C 81.539062 -222.125 88.78125 -222.59375 95.03125 -222.59375 C 106.082031 -222.59375 116.660156 -221.5 126.765625 -219.3125 C 136.878906 -217.125 144.539062 -215.085938 149.75 -213.203125 C 154.957031 -211.742188 157.039062 -208.722656 156 -204.140625 C 155.789062 -203.304688 155.375 -201.117188 154.75 -197.578125 C 154.125 -194.035156 153.394531 -190.179688 152.5625 -186.015625 C 151.726562 -181.847656 151 -178.039062 150.375 -174.59375 C 149.75 -171.15625 149.332031 -168.914062 149.125 -167.875 C 148.707031 -166 147.820312 -164.488281 146.46875 -163.34375 C 145.113281 -162.195312 142.976562 -162.144531 140.0625 -163.1875 C 134.84375 -165.0625 129.003906 -166.9375 122.546875 -168.8125 C 116.085938 -170.6875 109.003906 -171.625 101.296875 -171.625 C 98.367188 -171.625 95.445312 -171.050781 92.53125 -169.90625 C 89.613281 -168.757812 87.738281 -167.144531 86.90625 -165.0625 C 85.65625 -161.519531 86.125 -157.976562 88.3125 -154.4375 C 90.5 -150.894531 94.875 -146.566406 101.4375 -141.453125 C 108.007812 -136.347656 116.921875 -129.734375 128.171875 -121.609375 Z M 128.171875 -121.609375 "/></g></g></g></svg>